<svg xmlns="http://www.w3.org/2000/svg" viewBox="0 0 490.667 490.667"><path d="M480.427 32.642L301.014 162.348l-29.44 21.333c-15.596 11.522-36.884 11.522-52.48 0l-29.44-21.333L10.027 32.855a53.035 53.035 0 0143.307-22.187h384a53.334 53.334 0 0143.093 21.974z" fill="#ffd54f"/><path d="M10.027 32.855l179.627 129.493-174.08 174.08A53.334 53.334 0 010 298.668V64.002a52.695 52.695 0 0110.027-31.147zM490.667 64.002v234.667a53.333 53.333 0 01-15.573 37.76l-174.08-174.08L480.427 32.642a53.029 53.029 0 0110.24 31.36z" fill="#ffc107"/><path d="M320 394.668c-14.165 0-21.333-10.667-21.333-32 .349-29.807-23.531-54.252-53.338-54.601-29.807-.349-54.252 23.531-54.601 53.338-.349 29.807 23.531 54.252 53.338 54.601a53.972 53.972 0 0041.609-18.842A38.037 38.037 0 00320 416.001c42.667 0 42.667-40.149 42.667-53.333.001-64.801-52.53-117.334-117.331-117.336S128.002 297.862 128 362.664c-.001 64.801 52.53 117.334 117.331 117.336a117.334 117.334 0 0081.581-33c4.236-4.124 4.326-10.9.203-15.136-4.124-4.236-10.9-4.326-15.136-.203-38.161 36.807-98.935 35.709-135.742-2.452s-35.709-98.935 2.452-135.742c38.161-36.807 98.935-35.709 135.742 2.452a96.002 96.002 0 0126.903 66.75c0 23.914-5.376 31.999-21.334 31.999zm-74.666 0c-17.673 0-32-14.327-32-32s14.327-32 32-32 32 14.327 32 32-14.327 32-32 32z" fill="#455a64"/><path d="M301.014 162.348l-29.44 21.333c-15.596 11.522-36.884 11.522-52.48 0l-29.44-21.333-174.08 174.08a53.33 53.33 0 0037.76 15.573H107.2c5.771-76.283 72.288-133.445 148.572-127.674 68.259 5.164 122.51 59.415 127.674 127.674h53.888a53.333 53.333 0 0037.76-15.573l-174.08-174.08z" fill="#ffa000"/></svg>