<svg xmlns="http://www.w3.org/2000/svg" version="1.0" width="150" height="150"><path fill="#ccc" d="M104.687 56.69c-2.493 23.95-11.582 40.579-30.315 40.579S46.99 82.308 44.057 57.289C41.623 34.94 55.639 15.8 74.372 15.8s32.452 18.494 30.315 40.89z"/><path fill="#ccc" d="M92.567 89.605c-1.772 3.874-3.168 12.845 2.298 17.299 9.073 7.392 11.841 9.568 23.447 12.042 25.731 5.485 23.337 19.208 28.212 30.275l-142.256-.119c4.204-10.45 2.238-24.32 28.133-30.715 9.409-2.323 13.264-4.505 21.186-11.371 4.94-4.283 3.939-13.023 2.844-17.747-3.938-.439 37.743-1.128 36.136.336z"/></svg>