<svg xmlns="http://www.w3.org/2000/svg" viewBox="0 0 80 80"><path d="M54.1 40L40 54.1l11.4 11.4c3.3 3.3 8.8 3.3 12.2 0l1.9-1.9c3.3-3.3 3.3-8.8 0-12.2L54.1 40z" fill="#3ebeb0"/><path d="M28.6 14.5c-3.3-3.3-8.8-3.3-12.2 0l-1.9 1.9c-3.3 3.3-3.3 8.8 0 12.2L40 54.1 54.1 40 28.6 14.5z" fill="#35beef"/><path d="M14.5 51.4c-3.3 3.3-3.3 8.8 0 12.2l1.9 1.9c3.3 3.3 8.8 3.3 12.2 0L40 54.1 25.9 40 14.5 51.4z" fill="#2d9610"/><path d="M65.5 28.6c3.3-3.3 3.3-8.8 0-12.2l-1.9-1.9c-3.3-3.3-8.8-3.3-12.2 0L40 25.9 54.1 40l11.4-11.4z" fill="#f3bd19"/></svg>